HIERARCHY
ROOT Hips
{
	OFFSET 0.000000 0.000000 0.000000
	CHANNELS 6 Xposition Yposition Zposition Zrotation Yrotation Xrotation 
	JOINT LHipJoint
	{
		OFFSET 0.000000 0.000000 0.000000
		CHANNELS 3 Zrotation Yrotation Xrotation
		JOINT LeftUpLeg
		{
			OFFSET 1.363060 -1.794630 0.839290
			CHANNELS 3 Zrotation Yrotation Xrotation
			JOINT LeftLeg
			{
				OFFSET 2.448110 -6.726130 0.000000
				CHANNELS 3 Zrotation Yrotation Xrotation
				JOINT LeftFoot
				{
					OFFSET 2.562200 -7.039590 0.000000
					CHANNELS 3 Zrotation Yrotation Xrotation
					JOINT LeftToeBase
					{
						OFFSET 0.157640 -0.433110 2.322550
						CHANNELS 3 Zrotation Yrotation Xrotation
						End Site
						{
							OFFSET 0.000000 0.000000 0.000000
						}
					}
				}
			}
		}
	}
	JOINT RHipJoint
	{
		OFFSET 0.000000 0.000000 0.000000
		CHANNELS 3 Zrotation Yrotation Xrotation
		JOINT RightUpLeg
		{
			OFFSET -1.305520 -1.794630 0.839290
			CHANNELS 3 Zrotation Yrotation Xrotation
			JOINT RightLeg
			{
				OFFSET -2.542530 -6.985550 0.000000
				CHANNELS 3 Zrotation Yrotation Xrotation
				JOINT RightFoot
				{
					OFFSET -2.568260 -7.056230 0.000000
					CHANNELS 3 Zrotation Yrotation Xrotation
					JOINT RightToeBase
					{
						OFFSET -0.164730 -0.452590 2.363150
						CHANNELS 3 Zrotation Yrotation Xrotation
						End Site
						{
							OFFSET 0.000000 0.000000 0.000000
						}
					}
				}
			}
		}
	}
	JOINT LowerBack
	{
		OFFSET 0.000000 0.000000 0.000000
		CHANNELS 3 Zrotation Yrotation Xrotation
		JOINT Spine
		{
			OFFSET 0.028270 2.035590 -0.193380
			CHANNELS 3 Zrotation Yrotation Xrotation
			JOINT Spine1
			{
				OFFSET 0.056720 2.048850 -0.042750
				CHANNELS 3 Zrotation Yrotation Xrotation
				JOINT Neck
				{
					OFFSET 0.000000 0.000000 0.000000
					CHANNELS 3 Zrotation Yrotation Xrotation
					JOINT Neck1
					{
						OFFSET -0.054170 1.746240 0.172020
						CHANNELS 3 Zrotation Yrotation Xrotation
						JOINT Head
						{
							OFFSET 0.104070 1.761360 -0.123970
							CHANNELS 3 Zrotation Yrotation Xrotation
							End Site
							{
								OFFSET 0.000000 0.000000 0.000000
							}
						}
					}
				}
				JOINT LeftShoulder
				{
					OFFSET 0.000000 0.000000 0.000000
					CHANNELS 3 Zrotation Yrotation Xrotation
					JOINT LeftArm
					{
						OFFSET 3.362410 1.200890 -0.311210
						CHANNELS 3 Zrotation Yrotation Xrotation
						JOINT LeftForeArm
						{
							OFFSET 4.983000 -0.000000 -0.000000
							CHANNELS 3 Zrotation Yrotation Xrotation
							JOINT LeftHand
							{
								OFFSET 3.483560 -0.000000 -0.000000
								CHANNELS 3 Zrotation Yrotation Xrotation
								JOINT LeftFingerBase
								{
									OFFSET 0.000000 0.000000 0.000000
									CHANNELS 3 Zrotation Yrotation Xrotation
									JOINT LeftHandIndex1
									{
										OFFSET 0.715260 -0.000000 -0.000000
										CHANNELS 3 Zrotation Yrotation Xrotation
										End Site
										{
											OFFSET 0.000000 0.000000 0.000000
										}
									}
								}
								JOINT LThumb
								{
									OFFSET 0.000000 0.000000 0.000000
									CHANNELS 3 Zrotation Yrotation Xrotation
									End Site
									{
										OFFSET 0.000000 0.000000 0.000000
									}
								}
							}
						}
					}
				}
				JOINT RightShoulder
				{
					OFFSET 0.000000 0.000000 0.000000
					CHANNELS 3 Zrotation Yrotation Xrotation
					JOINT RightArm
					{
						OFFSET -3.136600 1.374050 -0.404650
						CHANNELS 3 Zrotation Yrotation Xrotation
						JOINT RightForeArm
						{
							OFFSET -5.241900 -0.000000 -0.000000
							CHANNELS 3 Zrotation Yrotation Xrotation
							JOINT RightHand
							{
								OFFSET -3.444170 -0.000000 -0.000000
								CHANNELS 3 Zrotation Yrotation Xrotation
								JOINT RightFingerBase
								{
									OFFSET 0.000000 0.000000 0.000000
									CHANNELS 3 Zrotation Yrotation Xrotation
									JOINT RightHandIndex1
									{
										OFFSET -0.622530 -0.000000 -0.000000
										CHANNELS 3 Zrotation Yrotation Xrotation
										End Site
										{
											OFFSET 0.000000 0.000000 0.000000
										}
									}
								}
								JOINT RThumb
								{
									OFFSET 0.000000 0.000000 0.000000
									CHANNELS 3 Zrotation Yrotation Xrotation
									End Site
									{
										OFFSET 0.000000 0.000000 0.000000
									}
								}
							}
						}
					}
				}
			}
		}
	}
}
MOTION
Frames: 6
Frame Time: 0.016667
-0.237064 17.571733 -0.237064 3.599111 -5.142988 7.123935 -12.254063 3.531891 3.213518 17.754319 -34.048457 -23.066500 84.551665 -62.545194 -48.376981 -63.672420 -79.135586 50.953600 0.000000 0.000000 0.000000 24.867584 -11.810509 -9.558762 2.199395 18.072946 -26.568864 49.955666 1.592278 -47.093316 43.382251 -87.315968 -6.607868 0.000000 0.000000 0.000000 -9.382252 3.912557 9.328640 7.356753 1.555542 5.139755 -3.146021 2.782147 -13.210772 4.907998 1.670139 -5.821469 5.984471 1.886301 -16.688522 0.000000 0.000000 0.000000 -3.496359 14.053210 10.153558 -68.882572 -1.406936 16.037808 1.139079 -86.548660 1.373473 -17.626652 20.076602 0.636759 -17.898944 19.788723 -0.000000 0.000000 0.000000 0.000000 0.000000 0.000000 0.000000 -4.155291 -15.437033 8.760711 66.384860 2.565546 17.378292 24.492587 65.041511 0.994269 1.241994 19.584726 0.491972 1.253426 19.600692 0.000000 0.000000 0.000000 0.000000 0.000000 0.000000 0.000000 
-0.236333 17.595522 -0.087971 3.355283 -6.057794 6.657581 -12.226673 4.708579 3.445369 16.000773 -32.966490 -22.738162 84.364412 -62.290589 -48.771465 -62.780087 -81.608333 49.723560 0.000000 0.000000 0.000000 24.756560 -12.738009 -10.813728 6.246136 16.579372 -26.018429 52.871575 -2.873954 -43.917945 47.796586 -84.088302 -13.813927 0.000000 0.000000 0.000000 -9.801360 3.270849 8.927523 7.512206 1.239901 5.475445 1.334541 2.363725 -13.671283 4.577754 -0.819230 -7.912750 -1.143507 -0.129540 -0.237585 0.000000 0.000000 0.000000 -3.792532 14.161847 10.251687 -71.762378 -6.955007 4.000479 -160.186870 -86.983568 174.360849 21.957553 -16.903603 -3.366331 23.729516 -15.869857 -0.000000 0.000000 0.000000 0.000000 0.000000 0.000000 0.000000 0.941314 -12.685868 8.040947 57.608973 0.240809 22.673809 4.316297 89.171997 0.254269 0.647179 -28.961393 0.119775 0.695148 -28.960866 0.000000 0.000000 0.000000 0.000000 0.000000 0.000000 0.000000 
-0.233304 17.621131 0.060483 3.321357 -9.201891 6.196957 -12.204038 6.914121 4.091393 14.812347 -31.489419 -22.908276 84.219823 -62.155234 -48.756972 -61.920131 -83.127809 48.637245 0.000000 0.000000 0.000000 24.727496 -16.325155 -14.446262 19.423942 13.135422 -25.849706 50.542556 -14.500311 -32.214173 55.087178 -74.716740 -27.308557 0.000000 0.000000 0.000000 -10.318099 2.122228 9.552691 6.416823 0.693331 2.737805 7.743707 1.770078 -12.857637 3.566260 -3.505772 -7.331519 -10.911023 -0.370630 12.414963 0.000000 0.000000 0.000000 1.042114 14.484162 1.143980 -84.489218 -7.241835 -13.536901 -38.629651 -84.378381 -64.519367 61.965503 24.932451 -16.382162 2.484235 -51.408321 -0.000000 0.000000 0.000000 0.000000 0.000000 0.000000 0.000000 3.444318 -5.371668 8.475963 51.821413 0.964438 15.667750 169.696921 73.152887 176.470140 17.829568 -57.937876 -3.985503 25.586943 -55.011432 0.000000 0.000000 0.000000 0.000000 0.000000 0.000000 0.000000 
-0.190212 17.675268 0.246118 4.080236 -13.247789 4.399985 -12.690680 9.389903 6.298561 14.151394 -30.130080 -22.946157 84.639368 -61.458895 -48.069638 -61.529118 -84.124656 47.855164 0.000000 0.000000 0.000000 24.880475 -20.907435 -16.697396 31.016909 9.913549 -23.263649 41.726468 -22.299682 -21.420193 61.842332 -63.362811 -37.434016 0.000000 0.000000 0.000000 -9.819594 -0.202533 7.078404 6.061347 -0.897285 8.510024 5.835819 1.559920 -14.269146 3.481777 -4.839782 -8.930294 -16.470538 -0.012423 17.138423 0.000000 0.000000 0.000000 -2.138773 13.829138 -7.282951 -46.242132 -10.344589 21.144364 119.665461 -70.497663 108.681019 98.096070 39.344012 86.925559 -1.685397 -15.382424 -0.000000 0.000000 0.000000 0.000000 0.000000 0.000000 0.000000 4.784719 1.032335 10.493298 52.844310 4.544070 13.038046 166.253374 68.261461 174.889977 23.852410 -60.964026 -6.274260 35.527328 -55.166142 0.000000 0.000000 0.000000 0.000000 0.000000 0.000000 0.000000 
-0.145346 17.730539 0.430733 5.185805 -18.036829 3.954198 -13.457842 11.227818 7.689074 14.287877 -28.754072 -23.594527 84.682564 -61.127808 -46.259851 -60.743627 -83.763950 46.619496 0.000000 0.000000 0.000000 27.051190 -23.306533 -21.341544 40.324285 7.562529 -18.787081 25.992813 -22.965071 -10.124324 79.862663 -44.509011 -56.145322 0.000000 0.000000 0.000000 -10.799151 -2.064324 10.900949 0.478503 -2.782467 -0.474161 12.399231 0.370472 -18.216280 2.203246 -6.136035 1.475269 -24.942438 1.516043 24.301930 0.000000 0.000000 0.000000 3.586591 7.921893 -34.631064 -48.361002 0.130684 -67.876209 -53.652220 -47.829942 -107.647031 116.683887 -51.477895 59.055333 175.168689 7.948438 -0.000000 0.000000 0.000000 0.000000 0.000000 0.000000 0.000000 6.895515 9.669209 18.328770 51.217755 3.429655 10.206362 162.050522 64.250617 172.966058 31.060515 -61.903715 -8.389105 45.774268 -52.874899 0.000000 0.000000 0.000000 0.000000 0.000000 0.000000 0.000000 
-0.099979 17.785214 0.612785 7.339490 -15.788877 1.608522 -14.976319 10.148632 9.744300 14.847016 -32.213434 -22.287305 84.644083 -61.144978 -43.369654 -61.032264 -82.064913 45.721410 0.000000 0.000000 0.000000 31.552714 -23.082050 -29.160646 43.510435 9.048743 -15.371959 2.722450 -16.194592 0.246844 90.156295 -22.484863 -71.775524 0.000000 0.000000 0.000000 -10.180135 -0.147946 14.763103 -1.011286 -1.640982 -7.284718 13.548956 -0.596762 -15.801298 -2.224042 -5.225593 8.623052 -27.604808 1.773902 24.329557 0.000000 0.000000 0.000000 10.452802 -0.835763 -43.463740 -35.016613 9.664018 -97.820872 -47.968553 33.734786 -160.124763 167.790540 -4.859382 37.192701 -72.542495 -23.920387 -179.999998 0.000000 0.000000 0.000000 0.000000 0.000000 0.000000 6.154876 6.992715 19.347671 50.897924 2.656824 3.852472 158.521775 59.843462 171.394546 38.816356 -61.241004 -9.274441 54.499775 -50.124433 0.000000 0.000000 0.000000 0.000000 0.000000 0.000000 0.000000 
